<svg width="24" height="18" viewBox="0 0 24 18" fill="none" xmlns="http://www.w3.org/2000/svg">
<path d="M4.22133 17.9602V16.7656C4.22133 16.3075 3.94251 16.0089 3.4646 16.0089C3.22569 16.0089 2.96682 16.0886 2.78759 16.3474C2.64827 16.1284 2.44918 16.0089 2.1505 16.0089C1.95131 16.0089 1.75231 16.0686 1.59294 16.2877V16.0488H1.1748V17.9602H1.59294V16.9049C1.59294 16.5665 1.77217 16.4071 2.05099 16.4071C2.32963 16.4071 2.46913 16.5864 2.46913 16.9049V17.9602H2.88727V16.9049C2.88727 16.5665 3.08628 16.4071 3.34514 16.4071C3.62396 16.4071 3.76328 16.5864 3.76328 16.9049V17.9602H4.22133ZM10.4137 16.0488H9.73679V15.4713H9.31865V16.0488H8.94033V16.427H9.31856V17.3032C9.31856 17.7413 9.49779 18 9.9757 18C10.1549 18 10.3539 17.9404 10.4934 17.8607L10.3739 17.5023C10.2544 17.5819 10.1151 17.6019 10.0155 17.6019C9.81643 17.6019 9.73679 17.4824 9.73679 17.2832V16.427H10.4137V16.0488ZM13.958 16.0088C13.7191 16.0088 13.5598 16.1284 13.4602 16.2877V16.0488H13.0421V17.9602H13.4602V16.885C13.4602 16.5665 13.5996 16.3873 13.8584 16.3873C13.9381 16.3873 14.0377 16.4072 14.1173 16.4271L14.2367 16.0289C14.1571 16.0089 14.0377 16.0089 13.958 16.0089V16.0088ZM8.60183 16.208C8.40264 16.0686 8.12391 16.0089 7.82523 16.0089C7.34741 16.0089 7.02886 16.2478 7.02886 16.6262C7.02886 16.9448 7.26777 17.1239 7.68591 17.1837L7.885 17.2037C8.10405 17.2434 8.22351 17.3032 8.22351 17.4028C8.22351 17.5421 8.06423 17.6417 7.78541 17.6417C7.50668 17.6417 7.28763 17.5421 7.14822 17.4426L6.94913 17.7611C7.16818 17.9204 7.46686 18 7.76546 18C8.32301 18 8.64165 17.7413 8.64165 17.3828C8.64165 17.0443 8.38278 16.8651 7.9845 16.8054L7.78541 16.7854C7.60618 16.7655 7.46686 16.7258 7.46686 16.6063C7.46686 16.4669 7.60618 16.3873 7.82523 16.3873C8.06423 16.3873 8.30314 16.4868 8.4226 16.5465L8.60183 16.208ZM19.7125 16.0089C19.4735 16.0089 19.3142 16.1284 19.2146 16.2877V16.0488H18.7965V17.9602H19.2146V16.885C19.2146 16.5665 19.354 16.3873 19.6128 16.3873C19.6925 16.3873 19.7921 16.4072 19.8717 16.4271L19.9912 16.0289C19.9116 16.0089 19.7921 16.0089 19.7125 16.0089ZM14.3762 17.0045C14.3762 17.5819 14.7743 18 15.3917 18C15.6704 18 15.8695 17.9404 16.0686 17.7811L15.8695 17.4426C15.7102 17.562 15.5509 17.6217 15.3717 17.6217C15.0332 17.6217 14.7943 17.3828 14.7943 17.0045C14.7943 16.6461 15.0332 16.4071 15.3717 16.3873C15.5509 16.3873 15.7102 16.4469 15.8695 16.5665L16.0686 16.228C15.8695 16.0686 15.6704 16.0089 15.3917 16.0089C14.7743 16.0089 14.3762 16.4271 14.3762 17.0045ZM18.239 17.0045V16.0488H17.8209V16.2877C17.6815 16.1085 17.4824 16.0089 17.2235 16.0089C16.6859 16.0089 16.2678 16.4271 16.2678 17.0045C16.2678 17.5819 16.6859 18 17.2235 18C17.5022 18 17.7014 17.9005 17.8209 17.7213V17.9602H18.239V17.0045ZM16.7058 17.0045C16.7058 16.666 16.9248 16.3873 17.2832 16.3873C17.6217 16.3873 17.8607 16.6461 17.8607 17.0045C17.8607 17.343 17.6217 17.6217 17.2832 17.6217C16.9248 17.6018 16.7058 17.343 16.7058 17.0045ZM11.708 16.0089C11.1505 16.0089 10.7522 16.4071 10.7522 17.0045C10.7522 17.6019 11.1504 18 11.7279 18C12.0066 18 12.2855 17.9204 12.5045 17.7413L12.3053 17.4426C12.146 17.562 11.9469 17.6417 11.7479 17.6417C11.489 17.6417 11.2301 17.5222 11.1704 17.1836H12.5841V17.0244C12.6041 16.4071 12.2456 16.0089 11.7079 16.0089H11.708ZM11.708 16.3673C11.9668 16.3673 12.1461 16.5267 12.1859 16.8254H11.1903C11.2301 16.5665 11.4094 16.3673 11.708 16.3673ZM22.0819 17.0045V15.2921H21.6638V16.2877C21.5244 16.1085 21.3253 16.0089 21.0664 16.0089C20.5288 16.0089 20.1107 16.4271 20.1107 17.0045C20.1107 17.5819 20.5288 18 21.0664 18C21.3452 18 21.5443 17.9005 21.6638 17.7213V17.9602H22.0819V17.0045ZM20.5488 17.0045C20.5488 16.666 20.7677 16.3873 21.1262 16.3873C21.4647 16.3873 21.7036 16.6461 21.7036 17.0045C21.7036 17.343 21.4647 17.6217 21.1262 17.6217C20.7677 17.6018 20.5488 17.343 20.5488 17.0045ZM6.57081 17.0045V16.0488H6.15267V16.2877C6.01326 16.1085 5.81417 16.0089 5.5553 16.0089C5.0177 16.0089 4.59956 16.4271 4.59956 17.0045C4.59956 17.5819 5.0177 18 5.5553 18C5.83412 18 6.03321 17.9005 6.15267 17.7213V17.9602H6.57081V17.0045ZM5.0177 17.0045C5.0177 16.666 5.23675 16.3873 5.59512 16.3873C5.93362 16.3873 6.17262 16.6461 6.17262 17.0045C6.17262 17.343 5.93362 17.6217 5.59512 17.6217C5.23675 17.6018 5.0177 17.343 5.0177 17.0045Z" fill="black"/>
<path d="M8.46234 1.5332H14.7344V12.8031H8.46234V1.5332Z" fill="#FF5F00"/>
<path d="M8.86067 7.16816C8.86067 4.87836 9.93587 2.84734 11.5885 1.53315C10.374 0.577414 8.84081 0 7.16825 0C3.20571 0 0 3.20571 0 7.16816C0 11.1305 3.20571 14.3363 7.16816 14.3363C8.84072 14.3363 10.3739 13.7589 11.5885 12.8031C9.93587 11.5088 8.86067 9.45795 8.86067 7.16816Z" fill="#EB001B"/>
<path d="M23.1969 7.16816C23.1969 11.1305 19.9912 14.3363 16.0288 14.3363C14.3562 14.3363 12.8231 13.7589 11.6085 12.8031C13.281 11.489 14.3363 9.45795 14.3363 7.16816C14.3363 4.87836 13.2611 2.84734 11.6085 1.53315C12.823 0.577414 14.3562 0 16.0288 0C19.9912 0 23.197 3.22567 23.197 7.16816H23.1969Z" fill="#F79E1B"/>
</svg>
