<svg width="32" height="10" viewBox="0 0 32 10" fill="none" xmlns="http://www.w3.org/2000/svg">
<path d="M16.5496 3.19688C16.5314 4.58993 17.8325 5.36725 18.8126 5.82946C19.8196 6.30365 20.1579 6.60776 20.1539 7.03186C20.1464 7.68084 19.3506 7.96729 18.606 7.97842C17.3069 7.9979 16.5515 7.63899 15.951 7.36754L15.483 9.48674C16.0855 9.75541 17.2011 9.98972 18.358 10C21.0736 10 22.8503 8.70276 22.8599 6.69146C22.8705 4.13884 19.2114 3.99756 19.2364 2.85661C19.245 2.51064 19.5861 2.14146 20.3336 2.04759C20.7036 2.00017 21.725 1.96388 22.883 2.47992L23.3375 0.429549C22.7148 0.210117 21.9144 0 20.9179 0C18.3619 0 16.5641 1.3149 16.5496 3.19688ZM27.7048 0.17661C27.2089 0.17661 26.791 0.456525 26.6045 0.886074L22.7254 9.8494H25.439L25.979 8.40519H29.295L29.6082 9.8494H32L29.9129 0.17661H27.7048ZM28.0844 2.78959L28.8675 6.42183H26.7227L28.0844 2.78959ZM13.2595 0.176731L11.1205 9.84928H13.7064L15.8444 0.176489H13.2595V0.176731ZM9.43412 0.176489L6.74263 6.76029L5.65387 1.16236C5.52612 0.537451 5.02163 0.17661 4.46138 0.17661H0.061625L0 0.457492C0.90325 0.647166 1.9295 0.953089 2.55125 1.28042C2.93175 1.48038 3.04025 1.65518 3.16525 2.13033L5.22738 9.8494H7.96L12.1495 0.17661H9.43412" fill="url(#paint0_linear)"/>
<defs>
<linearGradient id="paint0_linear" x1="14.7117" y1="10.2006" x2="14.9918" y2="-0.0700642" gradientUnits="userSpaceOnUse">
<stop stop-color="#222357"/>
<stop offset="1" stop-color="#254AA5"/>
</linearGradient>
</defs>
</svg>
